<?xml version="1.0" encoding="UTF-8" standalone="no"?>
<!-- Generator: Adobe Illustrator 27.5.0, SVG Export Plug-In . SVG Version: 6.00 Build 0)  -->

<svg
   version="1.1"
   x="0px"
   y="0px"
   viewBox="0 0 435.41248 170.88878"
   xml:space="preserve"
   id="svg51"
   sodipodi:docname="23249389_6766079.svg"
   width="435.41248"
   height="170.88878"
   inkscape:export-filename="../Documents/Projects/hackzzila.github.io/shark-swimming.svg"
   inkscape:export-xdpi="96"
   inkscape:export-ydpi="96"
   xmlns:inkscape="http://www.inkscape.org/namespaces/inkscape"
   xmlns:sodipodi="http://sodipodi.sourceforge.net/DTD/sodipodi-0.dtd"
   xmlns="http://www.w3.org/2000/svg"
   xmlns:svg="http://www.w3.org/2000/svg"><defs
   id="defs51" /><sodipodi:namedview
   id="namedview51"
   pagecolor="#000000"
   bordercolor="#000000"
   borderopacity="0.25"
   inkscape:showpageshadow="2"
   inkscape:pageopacity="0.0"
   inkscape:pagecheckerboard="true"
   inkscape:deskcolor="#d1d1d1" />&#10;&#10;<g
   id="OBJECTS"
   transform="translate(-24.542331,-152.75955)">&#10;	<g
   id="g51">&#10;		<path
   style="fill:none;stroke:#222221;stroke-width:2;stroke-linecap:round;stroke-linejoin:round;stroke-miterlimit:10"
   d="M 222.535,298.407 C 180.122,298.823 124.145,281.85 92.959,264.801 61.773,247.752 62.309,241.128 63.852,239.02 c 1.988,-2.716 17.563,-3.787 37.41,-0.338"
   id="path1" />&#10;		<path
   style="fill:none;stroke:#222221;stroke-width:2;stroke-linecap:round;stroke-linejoin:round;stroke-miterlimit:10"
   d="m 63.074,240.937 c -2.642,-1.208 -19.167,-8.969 -28.331,-18.133 -9.98,-9.98 -10.085,-17.519 -8.316,-20.791 3.96,-7.329 53.159,-24.943 149.346,-10.093"
   id="path2" />&#10;		<path
   style="fill:none;stroke:#222221;stroke-width:2;stroke-linecap:round;stroke-linejoin:round;stroke-miterlimit:10"
   d="m 219.285,204.235 c 22.697,9.951 119.212,48.682 186.043,19.609"
   id="path3" />&#10;		<path
   style="fill:none;stroke:#222221;stroke-width:2;stroke-linecap:round;stroke-linejoin:round;stroke-miterlimit:10"
   d="m 398.584,226.546 c 0,0 11.227,-20.375 26.197,-40.75 14.969,-20.375 28.691,-32.434 31.186,-32.018 2.495,0.416 4.574,15.385 -5.406,43.661 -9.98,28.276 -11.227,34.097 -11.643,36.176 -0.416,2.079 21.207,53.641 19.959,56.967 -1.247,3.327 -34.929,-17.048 -52.393,-47.403"
   id="path4" />&#10;		<path
   style="fill:none;stroke:#222221;stroke-width:2;stroke-linecap:round;stroke-linejoin:round;stroke-miterlimit:10"
   d="m 411.878,239.078 c 0,0 -32.29,21.081 -51.196,28.777"
   id="path5" />&#10;		<path
   style="fill:none;stroke:#222221;stroke-width:2;stroke-linecap:round;stroke-linejoin:round;stroke-miterlimit:10"
   d="m 333.602,277.843 c 0,0 -37.178,13.432 -73.845,17.069"
   id="path6" />&#10;		<path
   style="fill:none;stroke:#222221;stroke-width:0.75;stroke-linecap:round;stroke-linejoin:round;stroke-miterlimit:10"
   d="m 148.698,241.093 c 1.682,0.541 3.317,1.029 4.912,1.462"
   id="path7" />&#10;		<path
   style="fill:none;stroke:#222221;stroke-width:0.75;stroke-linecap:round;stroke-linejoin:round;stroke-miterlimit:10"
   d="m 32.167,219.759 c 0,0 -2.734,-5.341 1.533,-9.198 4.983,-4.503 34.16,-1.505 59.66,8.495 22.192,8.703 38.32,16.118 51.493,20.743"
   id="path8" />&#10;		<path
   style="fill:none;stroke:#222221;stroke-width:2;stroke-linecap:round;stroke-linejoin:round;stroke-miterlimit:10"
   d="m 325.57,273.299 c 8.805,6.784 33.814,11.687 44.315,4.186 0.884,-0.631 -7.179,-5.018 -12.305,-13.257"
   id="path9" />&#10;		<path
   style="fill:none;stroke:#222221;stroke-width:2;stroke-linecap:round;stroke-linejoin:round;stroke-miterlimit:10"
   d="m 199.473,254.316 c -4.242,1.818 -4.848,7.272 -2.424,13.938 2.424,6.666 14.545,23.635 38.179,39.392 23.635,15.757 43.634,16.363 44.846,13.939 1.212,-2.424 -28.415,-25.287 -33.869,-59.83"
   id="path10" />&#10;		<path
   style="fill:none;stroke:#222221;stroke-width:2;stroke-linecap:round;stroke-linejoin:round;stroke-miterlimit:10"
   d="m 155.612,288.691 c 0,0 13.61,25.14 30.642,31.953 1.639,0.655 -1.803,-9.012 4.752,-24.251"
   id="path11" />&#10;		<path
   style="fill:none;stroke:#222221;stroke-width:2;stroke-linecap:round;stroke-linejoin:round;stroke-miterlimit:10"
   d="m 166.833,190.043 c 0,0 9.145,-10.451 28.958,-19.16 19.814,-8.709 41.805,-10.451 43.111,-9.363 1.306,1.089 -12.411,20.031 -12.846,45.506"
   id="path12" />&#10;		<path
   style="fill:none;stroke:#222221;stroke-width:2;stroke-linecap:round;stroke-linejoin:round;stroke-miterlimit:10"
   d="m 329.542,233.419 c 7.455,-7.091 20.546,-13.636 22.546,-12.909 2,0.727 1.454,7.636 -0.909,13.636"
   id="path13" />&#10;		<path
   style="fill:none;stroke:#222221;stroke-width:0.75;stroke-linecap:round;stroke-linejoin:round;stroke-miterlimit:10"
   d="m 395.018,241.291 c 0.956,-0.567 1.903,-1.146 2.842,-1.736"
   id="path14" />&#10;		<path
   style="fill:none;stroke:#222221;stroke-width:0.75;stroke-linecap:round;stroke-linejoin:round;stroke-miterlimit:10"
   d="m 247.86,267.055 c 0,0 87.188,8.529 145.319,-24.692"
   id="path15" />&#10;		<path
   style="fill:none;stroke:#222221;stroke-width:0.75;stroke-linecap:round;stroke-linejoin:round;stroke-miterlimit:10"
   d="m 266.589,312.92 c 1.102,0.985 2.242,1.919 3.421,2.791"
   id="path16" />&#10;		<path
   style="fill:none;stroke:#222221;stroke-width:0.75;stroke-linecap:round;stroke-linejoin:round;stroke-miterlimit:10"
   d="m 242.104,271.967 c 0,0 7.302,24.035 22.452,39.039"
   id="path17" />&#10;		<path
   style="fill:none;stroke:#222221;stroke-width:0.75;stroke-linecap:round;stroke-linejoin:round;stroke-miterlimit:10"
   d="m 443.359,277.301 c 1.008,0.788 2.036,1.562 3.083,2.317"
   id="path18" />&#10;		<path
   style="fill:none;stroke:#222221;stroke-width:0.75;stroke-linecap:round;stroke-linejoin:round;stroke-miterlimit:10"
   d="m 414.808,246.225 c 0,0 10.529,16.339 26.637,29.543"
   id="path19" />&#10;		<path
   style="fill:none;stroke:#222221;stroke-width:0.75;stroke-linecap:round;stroke-linejoin:round;stroke-miterlimit:10"
   d="m 436.754,217.537 c -0.612,1.349 -1.243,2.69 -1.895,4.018"
   id="path20" />&#10;		<path
   style="fill:none;stroke:#222221;stroke-width:0.75;stroke-linecap:round;stroke-linejoin:round;stroke-miterlimit:10"
   d="m 452.572,165.883 c 0,0 -4.389,25.409 -14.772,49.299"
   id="path21" />&#10;		<path
   style="fill:none;stroke:#222221;stroke-width:0.75;stroke-linecap:round;stroke-linejoin:round;stroke-miterlimit:10"
   d="m 359.912,277.46 c 1.143,-0.162 2.28,-0.384 3.402,-0.675"
   id="path22" />&#10;		<path
   style="fill:none;stroke:#222221;stroke-width:0.75;stroke-linecap:round;stroke-linejoin:round;stroke-miterlimit:10"
   d="m 330.042,271.97 c 0,0 13.404,6.544 26.908,5.78"
   id="path23" />&#10;		<path
   style="fill:none;stroke:#222221;stroke-width:0.75;stroke-linecap:round;stroke-linejoin:round;stroke-miterlimit:10"
   d="m 178.725,311.241 c 0.858,0.688 1.735,1.339 2.629,1.94"
   id="path24" />&#10;		<path
   style="fill:none;stroke:#222221;stroke-width:0.75;stroke-linecap:round;stroke-linejoin:round;stroke-miterlimit:10"
   d="m 161.426,290.221 c 0,0 6.624,11.758 15.818,19.781"
   id="path25" />&#10;		<path
   style="fill:#222221"
   d="m 38.123,218.729 c 0.143,1.418 -0.408,2.722 -1.23,2.913 -0.822,0.191 -1.604,-0.805 -1.747,-2.223 -0.143,-1.418 0.408,-2.722 1.23,-2.913 0.822,-0.19 1.604,0.805 1.747,2.223 z"
   id="path26" />&#10;		<path
   style="fill:#222221"
   d="m 42.867,215.22 c 1.274,0.638 2.081,1.801 1.803,2.598 -0.279,0.796 -1.538,0.925 -2.813,0.286 -1.274,-0.638 -2.081,-1.801 -1.803,-2.597 0.279,-0.797 1.538,-0.925 2.813,-0.287 z"
   id="path27" />&#10;		<path
   style="fill:#222221"
   d="m 95.154,204.321 c 0,2.707 -2.194,4.901 -4.901,4.901 -2.707,0 -4.901,-2.194 -4.901,-4.901 0,-2.707 2.194,-4.901 4.901,-4.901 2.707,0 4.901,2.194 4.901,4.901 z"
   id="path28" />&#10;		<path
   style="fill:#ffffff"
   d="m 93.494,202.466 c 0,0.981 -0.795,1.776 -1.776,1.776 -0.981,0 -1.776,-0.795 -1.776,-1.776 0,-0.981 0.795,-1.776 1.776,-1.776 0.981,-0.001 1.776,0.794 1.776,1.776 z"
   id="path29" />&#10;		<path
   style="fill:none;stroke:#222221;stroke-width:0.75;stroke-linecap:round;stroke-linejoin:round;stroke-miterlimit:10"
   d="m 87.645,212.064 c -3.232,-1.088 -5.56,-4.144 -5.56,-7.743"
   id="path30" />&#10;		<path
   style="fill:none;stroke:#222221;stroke-width:0.75;stroke-linecap:round;stroke-linejoin:round;stroke-miterlimit:10"
   d="m 90.253,212.489 c -0.397,0 -0.787,-0.028 -1.169,-0.083"
   id="path31" />&#10;		<path
   style="fill:#222221"
   d="m 159.101,226.109 c 0,0 4.007,14.966 3.74,16.943 -0.267,1.977 -4.808,12.707 -4.808,12.707 0,0 8.065,-8.178 8.815,-12.142 0.534,-2.824 -7.747,-17.508 -7.747,-17.508 z"
   id="path32" />&#10;		<path
   style="fill:#222221"
   d="m 169.859,232.269 c 0,0 3.28,12.253 3.062,13.871 -0.219,1.618 -3.936,10.403 -3.936,10.403 0,0 6.603,-6.695 7.217,-9.941 0.436,-2.311 -6.343,-14.333 -6.343,-14.333 z"
   id="path33" />&#10;		<path
   style="fill:#222221"
   d="m 179.548,238.697 c 0,0 2.554,9.539 2.384,10.799 -0.17,1.26 -3.065,8.099 -3.065,8.099 0,0 5.14,-5.212 5.618,-7.739 0.341,-1.8 -4.937,-11.159 -4.937,-11.159 z"
   id="path34" />&#10;		<path
   style="fill:none;stroke:#222221;stroke-width:0.75;stroke-linecap:round;stroke-linejoin:round;stroke-miterlimit:10"
   d="m 158.497,282.272 c 13.743,3.894 32.465,7.775 56.542,9.802"
   id="path35" />&#10;		<path
   style="fill:none;stroke:#222221;stroke-width:0.75;stroke-linecap:round;stroke-linejoin:round;stroke-miterlimit:10"
   d="m 148.793,279.269 c 1.864,0.629 3.864,1.272 6.001,1.918"
   id="path36" />&#10;		<path
   style="fill:none;stroke:#222221;stroke-width:0.75;stroke-linecap:round;stroke-linejoin:round;stroke-miterlimit:10"
   d="m 290.472,284.978 c 1.71,-0.307 3.379,-0.637 4.978,-0.99"
   id="path37" />&#10;		<path
   style="fill:none;stroke:#222221;stroke-width:0.75;stroke-linecap:round;stroke-linejoin:round;stroke-miterlimit:10"
   d="m 256.046,288.736 c 0,0 15.628,-0.797 30.153,-3.046"
   id="path38" />&#10;		<path
   style="fill:none;stroke:#222221;stroke-width:0.75;stroke-linecap:round;stroke-linejoin:round;stroke-miterlimit:10"
   d="m 290.909,232.546 c 2.694,0.549 5.414,1.073 8.156,1.568"
   id="path39" />&#10;		<path
   style="fill:none;stroke:#222221;stroke-width:0.75;stroke-linecap:round;stroke-linejoin:round;stroke-miterlimit:10"
   d="m 205.976,206.317 c 0,0 35.848,15.633 80.224,25.239"
   id="path40" />&#10;		<path
   style="fill:none;stroke:#222221;stroke-width:0.75;stroke-linecap:round;stroke-linejoin:round;stroke-miterlimit:10"
   d="m 67.526,237.638 c 0,0 0.664,-2.55 2.124,-4.672 l 2.787,3.529"
   id="path41" />&#10;		<path
   style="fill:none;stroke:#222221;stroke-width:0.75;stroke-linecap:round;stroke-linejoin:round;stroke-miterlimit:10"
   d="m 63.653,238.65 c 0,0 0,-2.76 1.219,-5.006 l 2.696,3.329"
   id="path42" />&#10;		<path
   style="fill:none;stroke:#222221;stroke-width:0.75;stroke-linecap:round;stroke-linejoin:round;stroke-miterlimit:10"
   d="m 72.443,236.253 c 0,0 0.999,-1.965 2.637,-3.557 l 2.056,3.347"
   id="path43" />&#10;		<path
   style="fill:none;stroke:#222221;stroke-width:0.75;stroke-linecap:round;stroke-linejoin:round;stroke-miterlimit:10"
   d="m 77.375,236.059 c 0,0 0.516,-2.114 2.494,-3.563 l 2.854,3.926"
   id="path44" />&#10;		<path
   style="fill:none;stroke:#222221;stroke-width:0.75;stroke-linecap:round;stroke-linejoin:round;stroke-miterlimit:10"
   d="m 82.898,236.385 c 0,0 0.372,-1.795 2.224,-3.019 l 2.87,3.453"
   id="path45" />&#10;		<path
   style="fill:none;stroke:#222221;stroke-width:0.75;stroke-linecap:round;stroke-linejoin:round;stroke-miterlimit:10"
   d="m 87.948,236.712 c 0,0 0.071,-1.493 1.626,-2.521 l 2.65,2.885"
   id="path46" />&#10;		<path
   style="fill:none;stroke:#222221;stroke-width:0.75;stroke-linecap:round;stroke-linejoin:round;stroke-miterlimit:10"
   d="m 223.288,168.447 c 1.054,-0.143 2.106,-0.257 3.152,-0.338"
   id="path47" />&#10;		<path
   style="fill:none;stroke:#222221;stroke-width:0.75;stroke-linecap:round;stroke-linejoin:round;stroke-miterlimit:10"
   d="m 178.159,187.156 c 0,0 21.853,-14.822 43.204,-18.415"
   id="path48" />&#10;		<path
   style="fill:none;stroke:#222221;stroke-width:0.75;stroke-linecap:round;stroke-linejoin:round;stroke-miterlimit:10"
   d="m 348.029,224.58 c 0.433,-0.197 0.874,-0.389 1.324,-0.575"
   id="path49" />&#10;		<path
   style="fill:none;stroke:#222221;stroke-width:0.75;stroke-linecap:round;stroke-linejoin:round;stroke-miterlimit:10"
   d="m 334.299,234.374 c 0,0 4.638,-5.271 12.337,-9.128"
   id="path50" />&#10;		<path
   style="fill:none;stroke:#222221;stroke-width:0.75;stroke-linecap:round;stroke-linejoin:round;stroke-miterlimit:10"
   d="m 165.315,291.501 c 0,0 2.839,4.732 8.044,9.148"
   id="path51" />&#10;	</g>&#10;</g>&#10;</svg>
